<svg width="160" height="160" viewBox="0 0 160 160" fill="none" xmlns="http://www.w3.org/2000/svg">
  <defs>
    <linearGradient id="bg" x1="40" y1="14" x2="120" y2="142" gradientUnits="userSpaceOnUse">
      <stop stop-color="#3B82F6"/>
      <stop offset="1" stop-color="#22D3EE"/>
    </linearGradient>
  </defs>
  <g stroke-linecap="round" stroke-linejoin="round">
    <!-- Head -->
    <circle cx="80" cy="38" r="9" stroke="url(#bg)" stroke-width="3.5" fill="none"/>
    <!-- Body -->
    <ellipse cx="80" cy="80" rx="24" ry="36" stroke="url(#bg)" stroke-width="3.5" fill="#3B82F6" fill-opacity="0.10"/>
    <!-- Elytra split -->
    <line x1="80" y1="48" x2="80" y2="114" stroke="url(#bg)" stroke-width="2.5"/>
    <!-- Wing case arcs -->
    <path d="M72 58 A8 24 0 0 0 72 102" stroke="#7DD3FC" stroke-width="2.5" fill="none"/>
    <path d="M88 58 A8 24 0 0 1 88 102" stroke="#7DD3FC" stroke-width="2.5" fill="none"/>
    <!-- Antennae -->
    <path d="M74 32 Q64 20 54 14" stroke="url(#bg)" stroke-width="3" fill="none"/>
    <path d="M86 32 Q96 20 106 14" stroke="url(#bg)" stroke-width="3" fill="none"/>
    <circle cx="54" cy="14" r="3" fill="#22D3EE"/>
    <circle cx="106" cy="14" r="3" fill="#22D3EE"/>
    <!-- Legs -->
    <line x1="59" y1="66" x2="36" y2="54" stroke="#7DD3FC" stroke-width="3"/>
    <line x1="101" y1="66" x2="124" y2="54" stroke="#7DD3FC" stroke-width="3"/>
    <line x1="56" y1="80" x2="30" y2="80" stroke="#7DD3FC" stroke-width="3"/>
    <line x1="104" y1="80" x2="130" y2="80" stroke="#7DD3FC" stroke-width="3"/>
    <line x1="59" y1="96" x2="36" y2="108" stroke="#7DD3FC" stroke-width="3"/>
    <line x1="101" y1="96" x2="124" y2="108" stroke="#7DD3FC" stroke-width="3"/>
    <!-- Foot dots -->
    <circle cx="36" cy="54" r="2.5" fill="#3B82F6"/>
    <circle cx="124" cy="54" r="2.5" fill="#22D3EE"/>
    <circle cx="30" cy="80" r="2.5" fill="#22D3EE"/>
    <circle cx="130" cy="80" r="2.5" fill="#3B82F6"/>
    <circle cx="36" cy="108" r="2.5" fill="#3B82F6"/>
    <circle cx="124" cy="108" r="2.5" fill="#22D3EE"/>
  </g>
</svg>