<svg width="160" height="160" viewBox="0 0 160 160" fill="none" xmlns="http://www.w3.org/2000/svg">
  <defs>
    <linearGradient id="cg" x1="26" y1="26" x2="134" y2="134" gradientUnits="userSpaceOnUse">
      <stop stop-color="#3B82F6"/>
      <stop offset="1" stop-color="#22D3EE"/>
    </linearGradient>
  </defs>
  <g stroke-linecap="round" stroke-linejoin="round">
    <!-- Pins - Top -->
    <line x1="60" y1="44" x2="60" y2="26" stroke="#7DD3FC" stroke-width="3"/>
    <line x1="80" y1="44" x2="80" y2="26" stroke="#7DD3FC" stroke-width="3"/>
    <line x1="100" y1="44" x2="100" y2="26" stroke="#7DD3FC" stroke-width="3"/>
    <!-- Pins - Bottom -->
    <line x1="60" y1="116" x2="60" y2="134" stroke="#7DD3FC" stroke-width="3"/>
    <line x1="80" y1="116" x2="80" y2="134" stroke="#7DD3FC" stroke-width="3"/>
    <line x1="100" y1="116" x2="100" y2="134" stroke="#7DD3FC" stroke-width="3"/>
    <!-- Pins - Left -->
    <line x1="44" y1="60" x2="26" y2="60" stroke="#7DD3FC" stroke-width="3"/>
    <line x1="44" y1="80" x2="26" y2="80" stroke="#7DD3FC" stroke-width="3"/>
    <line x1="44" y1="100" x2="26" y2="100" stroke="#7DD3FC" stroke-width="3"/>
    <!-- Pins - Right -->
    <line x1="116" y1="60" x2="134" y2="60" stroke="#7DD3FC" stroke-width="3"/>
    <line x1="116" y1="80" x2="134" y2="80" stroke="#7DD3FC" stroke-width="3"/>
    <line x1="116" y1="100" x2="134" y2="100" stroke="#7DD3FC" stroke-width="3"/>
    <!-- Package -->
    <rect x="44" y="44" width="72" height="72" rx="8" stroke="url(#cg)" stroke-width="3.5" fill="#3B82F6" fill-opacity="0.08"/>
    <!-- Inner die -->
    <rect x="62" y="62" width="36" height="36" rx="4" stroke="url(#cg)" stroke-width="2.5" fill="none"/>
    <!-- Pin-1 marker -->
    <circle cx="52" cy="52" r="3.5" fill="#22D3EE"/>
    <!-- Die center -->
    <circle cx="80" cy="80" r="4" fill="#3B82F6"/>
    <!-- Pin terminal dots -->
    <circle cx="60" cy="26" r="2.5" fill="#22D3EE"/>
    <circle cx="100" cy="26" r="2.5" fill="#3B82F6"/>
    <circle cx="60" cy="134" r="2.5" fill="#3B82F6"/>
    <circle cx="100" cy="134" r="2.5" fill="#22D3EE"/>
    <circle cx="26" cy="60" r="2.5" fill="#22D3EE"/>
    <circle cx="26" cy="100" r="2.5" fill="#3B82F6"/>
    <circle cx="134" cy="60" r="2.5" fill="#3B82F6"/>
    <circle cx="134" cy="100" r="2.5" fill="#22D3EE"/>
  </g>
</svg>